<?xml version="1.0" encoding="utf-8"?>
<!-- Generator: Adobe Illustrator 28.0.0, SVG Export Plug-In . SVG Version: 6.00 Build 0)  -->
<svg version="1.1" id="Calque_1" xmlns="http://www.w3.org/2000/svg" xmlns:xlink="http://www.w3.org/1999/xlink" x="0px" y="0px"
	 viewBox="0 0 100 125" style="enable-background:new 0 0 100 125;" xml:space="preserve">
<style type="text/css">
	.st0{opacity:0.6;fill:#B3762F;}
</style>
<polygon class="st0" points="2.5,14.8 3.9,20.1 3.7,21 4.6,22.1 4.3,23.7 5.1,24.2 4.9,26.4 6.4,27.3 9.4,32.1 9.2,33.6 7.8,34.4 
	6,33.7 7.4,35.3 7.8,36.6 10,38.6 11.3,38.7 12.2,40.1 13.7,41.3 14.3,43.3 14.1,45.2 13.2,46.3 15.3,47.5 19.3,52.1 20.2,54.6 
	22.3,53 20.1,49.3 18.7,49.2 18,47.5 18.6,46.9 17.6,45.6 17.8,44.3 16.9,42.3 16.5,40.4 15.1,38.3 14.3,36.3 13.1,34.9 12.8,32.9 
	11.9,31.2 8.3,25.1 8.8,23.6 8.5,20.3 9,19.1 10.6,20.4 11.7,20.3 13.7,22.2 13.5,23.8 14.1,27.1 15.5,30.8 18.2,34.9 20,35.5 
	19.8,37.3 21.5,39.1 22.2,40.4 23,40.5 23.7,41.8 23,43.9 26.3,46.1 27.3,48.4 29.8,51 34.5,57.2 35,59.7 36,60.6 36,61.8 34.8,63 
	35.4,64 34.2,64.8 36.7,68.6 40.3,70.9 41.4,72.4 43.7,73.4 46.6,73.7 50,76.4 55.2,78.5 56.9,78.7 60.4,80.5 66.5,81.8 70.2,79.9 
	73.3,80 76.3,81.4 80.6,85.2 80.6,85 80.8,83.1 83,79.4 85.1,79.2 86.2,78.3 84.8,76.7 83.8,76 83.3,74.8 84.5,74.7 84.4,73.7 
	85.3,73 90.3,72.6 91.6,71.9 92,71 92.8,70.4 92.9,70.4 94.7,72.2 95.4,70.3 95.8,64.6 96.2,62.8 97.5,61.2 97.4,59.7 96.5,59.2 
	93.4,59.1 86.8,61.1 85.7,61.7 85.4,65.4 84.9,66.6 85,68.1 82.8,69.7 83.2,70.6 81.2,71.3 81.2,70.7 79.2,70.5 77.2,71.5 
	72.2,72.6 71,71.4 67.5,70.4 64.6,65.7 62.5,63.3 62,61.8 62.5,60.6 60.8,59.4 60.3,57.6 60.8,56.1 60.7,50.7 61.8,47.1 62.9,45.2 
	62.8,45.2 59.1,44.5 56.5,43.2 55.4,41.4 54.8,39.3 52.3,36.1 51.2,33.3 49.2,31 48.3,30.7 45.4,30.6 43.7,33.2 42.7,33.5 41.9,33 
	39.1,30.3 38.4,27.1 36.2,25.2 34.4,22.9 28.8,22.2 28.5,23.2 27.6,23.6 20,22.8 11.3,17.3 9.1,15.6 2.5,14.9 "/>
</svg>
